<?xml version="1.0" standalone="no"?>
<!DOCTYPE svg PUBLIC "-//W3C//DTD SVG 20010904//EN"
 "http://www.w3.org/TR/2001/REC-SVG-20010904/DTD/svg10.dtd">
<svg version="1.0" xmlns="http://www.w3.org/2000/svg"
 width="301.000000pt" height="116.000000pt" viewBox="0 0 301.000000 116.000000"
 preserveAspectRatio="xMidYMid meet">

<g transform="translate(0.000000,116.000000) scale(0.100000,-0.100000)"
fill="#000000" stroke="none">
<path d="M200 585 l0 -315 113 0 c177 0 235 26 285 125 54 110 55 281 0 388
-24 49 -86 93 -149 106 -27 6 -95 11 -149 11 l-100 0 0 -315z m294 276 c33
-14 45 -25 40 -33 -4 -7 -4 -10 1 -6 9 8 35 -9 35 -22 0 -13 -29 -20 -36 -8
-4 6 -3 8 4 4 6 -3 14 -1 18 5 5 9 -1 10 -22 5 -40 -9 -46 -9 -69 0 l-20 7 20
-23 20 -23 -22 12 c-13 6 -23 16 -23 21 0 5 -10 9 -22 10 -64 2 -93 -1 -96
-10 -5 -13 -42 -13 -42 0 0 14 -43 13 -58 -2 -9 -9 -12 -1 -12 40 l0 51 118
-3 c94 -3 129 -8 166 -25z m-52 -90 c33 -27 48 -82 48 -182 0 -151 -32 -209
-115 -209 l-45 0 0 205 0 205 44 0 c28 0 52 -7 68 -19z"/>
<path d="M440 840 c-9 -6 -10 -10 -3 -10 6 0 15 5 18 10 8 12 4 12 -15 0z"/>
<path d="M320 830 c8 -5 22 -10 30 -10 13 0 13 1 0 10 -8 5 -22 10 -30 10 -13
0 -13 -1 0 -10z"/>
<path d="M486 815 c4 -8 10 -12 15 -9 14 8 10 24 -6 24 -9 0 -12 -6 -9 -15z"/>
<path d="M290 810 c0 -5 5 -10 10 -10 6 0 10 5 10 10 0 6 -4 10 -10 10 -5 0
-10 -4 -10 -10z"/>
<path d="M1820 585 l0 -315 33 0 c27 0 36 6 46 26 l12 27 30 -29 c26 -25 38
-29 83 -29 29 0 64 6 77 13 61 33 95 135 86 262 -9 134 -66 206 -155 197 -24
-3 -51 -12 -61 -21 -10 -9 -21 -16 -24 -16 -4 0 -7 45 -7 100 l0 100 -60 0
-60 0 0 -315z m108 288 c2 -7 -3 -13 -12 -13 -8 0 -17 -4 -20 -9 -4 -5 3 -7
14 -4 15 4 20 0 20 -16 0 -11 -7 -22 -15 -22 -8 -1 -21 -2 -27 -3 -7 -1 -16 3
-20 9 -5 6 -8 6 -8 -2 0 -7 -6 -13 -14 -13 -10 0 -14 13 -14 45 l0 44 46 -2
c26 -1 47 -7 50 -14z m103 -232 c23 -18 24 -25 24 -139 0 -135 -8 -155 -59
-150 -47 5 -57 34 -54 166 3 99 5 115 22 128 26 19 39 18 67 -5z"/>
<path d="M718 733 c-17 -4 -18 -24 -18 -234 l0 -229 59 0 c70 0 68 -5 71 155
2 137 14 169 68 186 36 10 40 15 44 48 5 61 -1 81 -25 81 -34 0 -67 -28 -87
-74 l-19 -41 0 53 c-1 48 -3 52 -25 52 -13 0 -30 2 -38 4 -7 2 -21 2 -30 -1z"/>
<path d="M1055 726 c-42 -18 -82 -68 -96 -119 -19 -69 -7 -204 21 -257 53 -97
199 -121 278 -47 56 51 80 163 61 273 -20 114 -75 164 -179 164 -30 -1 -69 -7
-85 -14z m105 -76 c25 -13 33 -57 32 -160 -2 -107 -14 -140 -54 -140 -45 0
-61 48 -56 173 3 90 5 101 27 118 27 22 27 22 51 9z"/>
<path d="M1535 706 l-35 -37 0 30 0 31 -60 0 -61 0 5 -307 c2 -170 5 -309 5
-310 1 -2 28 -3 61 -3 l60 0 0 94 0 93 39 -19 c75 -37 154 1 188 90 28 73 25
222 -6 285 -28 57 -56 78 -116 85 -42 4 -48 2 -80 -32z m72 -73 c27 -41 26
-232 -1 -262 -23 -25 -58 -27 -81 -5 -14 14 -16 36 -13 141 3 110 5 126 22
139 30 21 54 17 73 -13z"/>
<path d="M2320 721 c-57 -31 -83 -90 -88 -196 -6 -143 21 -209 102 -246 77
-35 171 -19 221 38 35 39 48 94 48 194 0 72 -4 95 -24 135 -35 70 -65 88 -152
91 -56 3 -80 -1 -107 -16z m126 -75 c16 -12 19 -29 22 -126 5 -135 -6 -170
-50 -170 -45 0 -61 48 -56 173 3 90 5 101 27 118 28 23 32 23 57 5z"/>
<path d="M2620 724 c0 -3 25 -54 56 -113 l57 -106 -67 -112 c-36 -61 -66 -114
-66 -118 0 -3 24 -5 52 -3 l53 3 35 62 c19 34 38 63 43 63 4 0 22 -29 39 -65
l32 -65 68 0 69 0 -66 123 c-36 68 -65 130 -65 137 0 7 16 40 36 74 21 33 46
76 56 94 l20 32 -56 0 -56 0 -29 -51 -29 -52 -26 52 -26 51 -65 0 c-36 0 -65
-3 -65 -6z"/>
</g>
</svg>
